<svg width="24" height="24" viewBox="0 0 24 24" fill="none" xmlns="http://www.w3.org/2000/svg">
  <g id="ri:medium-fill">
    <path id="Vector" d="M2 5.49C2 5.29 2.07 5.1 2.2 4.96L3.72 3.25L8.72 11.35L12.93 3.9L18.75 3.75L19.01 4.02L20.94 6.12C21.01 6.2 21.03 6.31 21 6.41V17.57C21.03 17.68 21.01 17.8 20.94 17.88L18.94 20.12L18.69 20.25H17.94L12.26 12.83L8.05 20.25L2.8 20.1V19.9L4.95 17.45C5.06 17.33 5.12 17.17 5.12 17V6.98C5.12 6.81 5.06 6.65 4.95 6.53L2.19 5.49H2Z" fill="white"/>
  </g>
</svg>
