<svg width="24" height="24" viewBox="0 0 24 24" fill="none" xmlns="http://www.w3.org/2000/svg">
  <g id="ri:tiktok-fill">
    <path id="Vector" d="M12.75 2H9V17.45C9 18.97 7.97 20 6.45 20C4.93 20 3.9 18.97 3.9 17.45C3.9 16.33 4.65 15.38 5.68 15.06V11.78C3.41 12.16 1.75 14.01 1.75 16.25C1.75 18.93 3.82 21 6.5 21C9.18 21 11.25 18.93 11.25 16.25V8.54C12.47 9.32 13.93 9.75 15.45 9.75H16V6.44C16.84 7.03 17.82 7.43 18.89 7.57V4.31C18.4 4.33 17.92 4.27 17.46 4.13C16.19 3.74 15.25 2.7 14.89 1.44H12.75V2Z" fill="white"/>
  </g>
</svg>
